<?xml version="1.0" encoding="iso-8859-1"?>
<!-- Generator: Adobe Illustrator 19.0.0, SVG Export Plug-In . SVG Version: 6.00 Build 0)  -->
<svg version="1.1" id="Layer_1" xmlns="http://www.w3.org/2000/svg" xmlns:xlink="http://www.w3.org/1999/xlink" x="0px" y="0px"
	 viewBox="0 0 503.467 503.467" style="enable-background:new 0 0 503.467 503.467;" xml:space="preserve">
<g transform="translate(1 17)">
	<g>
		<path style="fill:#ECF4F7;" d="M3.267,380.227H498.2v34.133H3.267V380.227z M20.333,346.093h460.8v34.133h-460.8V346.093z"/>
		<path style="fill:#ECF4F7;" d="M173.933,176.28L173.933,176.28c-15.36,19.627-31.573,40.107-45.227,63.147h-0.853
			c-11.093-12.8-23.04-20.48-23.04-20.48s-3.413-2.56-9.387-5.973l0.853-0.853l-8.533-69.973c25.6,0,59.733,17.067,59.733,17.067
			S165.4,166.893,173.933,176.28"/>
		<path style="fill:#ECF4F7;" d="M128.707,238.573L128.707,238.573C109.933,271,95.427,305.986,88.6,346.093H37.4L20.333,175.427
			c19.627,0,58.88,24.747,75.947,36.693c5.973,3.413,9.387,5.973,9.387,5.973S117.613,225.773,128.707,238.573"/>
		<path style="fill:#ECF4F7;" d="M329.24,161.773c43.52-26.453,81.067-37.547,83.627-37.547
			c-85.333,68.267-102.4,119.467-102.4,119.467S293.4,286.36,293.4,346.093H191C209.773,253.08,274.627,195.053,329.24,161.773"/>
		<path style="fill:#ECF4F7;" d="M413.72,199.32c36.693-17.92,67.413-23.893,67.413-23.893
			C378.733,235.16,370.2,346.093,370.2,346.093h-76.8C303.64,267.586,363.373,223.213,413.72,199.32"/>
		<path style="fill:#ECF4F7;" d="M327.533,55.96C242.2,141.293,216.6,226.627,216.6,226.627S191,293.186,191,346.093H88.6
			c6.827-39.253,22.187-75.093,40.96-106.667c13.653-23.04,29.013-43.52,46.08-62.293C243.907,97.773,327.533,55.96,327.533,55.96"
			/>
	</g>
	<path style="fill:#AAB1BA;" d="M327.533,55.96v102.4l1.707,3.413c-54.613,33.28-119.467,90.453-138.24,184.32
		c0-52.907,25.6-119.467,25.6-119.467S242.2,141.293,327.533,55.96z M413.72,199.32c-49.493,23.893-110.08,68.267-120.32,146.773
		c0-59.733,17.067-102.4,17.067-102.4s17.067-51.2,102.4-119.467l0,0v74.24L413.72,199.32z M481.133,175.427
		c-17.067,85.333-17.067,136.533-17.067,136.533v34.133H421.4C421.4,346.093,421.4,252.227,481.133,175.427z M481.133,175.427
		C421.4,252.227,421.4,346.093,421.4,346.093h-51.2C370.2,346.093,378.733,235.16,481.133,175.427z"/>
</g>
<path style="fill:#51565F;" d="M499.2,435.627H4.267c-2.56,0-4.267-1.707-4.267-4.267c0-2.56,1.707-4.267,4.267-4.267H499.2
	c2.56,0,4.267,1.707,4.267,4.267C503.467,433.92,501.76,435.627,499.2,435.627z M482.133,401.493h-460.8
	c-2.56,0-4.267-1.707-4.267-4.267c0-2.56,1.707-4.267,4.267-4.267h460.8c2.56,0,4.267,1.707,4.267,4.267
	C486.4,399.786,484.693,401.493,482.133,401.493z M192,367.36L192,367.36H89.6l0,0H38.4c-2.56,0-4.267-1.707-4.267-4.267
	L17.067,192.427c0-0.853,0-2.56,0.853-3.413c0.853-0.853,1.707-1.707,3.413-1.707c17.92,0,52.053,19.627,71.68,32.427l-7.68-61.44
	c0-0.853,0-2.56,0.853-3.413c0.853-0.853,1.707-1.707,3.413-1.707c26.453,0,60.587,17.067,61.44,17.92
	c1.707,0.853,2.56,3.413,1.707,5.973c-0.853,1.707-3.413,2.56-5.973,1.707c0,0-29.013-14.507-52.907-16.213l7.68,64
	c4.267,2.56,6.827,4.267,6.827,5.12c1.707,1.707,2.56,4.267,0.853,5.973c-1.707,1.707-4.267,2.56-5.973,0.853
	c-15.36-11.093-56.32-37.547-78.507-41.813l16.213,161.28h43.52c35.84-183.467,234.667-286.72,240.64-289.28
	c0.853,0,0.853-0.853,1.707-0.853c0.853,0,0.853,0,1.707,0c0,0,0.853,0,0.853,0.853l0,0l0.853,0.853
	c0,0.853,0.853,0.853,0.853,1.707l0,0v76.8c0,2.56-1.707,4.267-4.267,4.267s-4.267-1.707-4.267-4.267v-64
	c-25.6,38.4-25.6,80.213-25.6,81.067c0,2.56-1.707,4.267-4.267,4.267s-4.267-1.707-4.267-4.267c0-1.707,0-29.013,13.653-60.587
	c-62.293,72.533-81.92,138.24-81.92,139.093c-0.853,2.56-3.413,3.413-5.12,2.56c-2.56-0.853-3.413-3.413-2.56-5.12
	c0-0.853,23.04-73.387,92.16-151.04C250.026,124.16,122.026,216.32,93.866,357.973h93.867
	c35.84-166.4,218.453-220.16,224.427-221.867h0.853c0.853,0,0.853,0,1.707,0c0.853,0,0.853,0.853,0.853,0.853l0.853,0.853
	c0,0.853,0.853,0.853,0.853,1.707l0,0v42.667c0,2.56-1.707,4.267-4.267,4.267s-4.267-1.707-4.267-4.267v-29.013
	c-17.067,26.453-17.067,46.08-17.067,46.08c0,2.56-1.707,4.267-4.267,4.267l0,0c-2.56,0-4.267-1.707-4.267-4.267
	c0-0.853,0-16.213,11.947-39.253c-65.707,58.027-80.213,99.84-80.213,99.84c-0.853,2.56-3.413,3.413-5.12,2.56
	c-2.56-0.853-3.413-3.413-2.56-5.12c0.853-1.707,16.213-46.08,85.333-106.667C343.04,170.24,225.28,228.267,196.267,356.267h93.013
	c19.627-133.12,185.173-169.813,190.293-170.667h0.853l0,0l0,0c0.853,0,0.853,0,1.707,0.853c0.853,0,0.853,0.853,0.853,0.853
	l0.853,0.853c0,0.853,0,0.853,0,1.707v0.853c-17.067,83.627-17.067,134.827-17.067,135.68c0,2.56-1.707,4.267-4.267,4.267
	s-4.267-1.707-4.267-4.267c0-0.853,0-45.227,13.653-118.613c-40.96,62.293-46.933,130.56-47.787,148.48h38.4
	c2.56,0,4.267,1.707,4.267,4.267c0,2.56-1.707,4.267-4.267,4.267H368.64l0,0h-76.8l0,0H192C192,367.36,192,367.36,192,367.36z
	 M376.32,358.827h42.667c0.853-17.92,6.827-87.04,47.787-150.187C394.24,260.693,378.88,339.2,376.32,358.827z M299.52,358.827
	h68.267c2.56-18.773,17.067-99.84,90.453-155.307C410.453,218.88,314.027,262.4,299.52,358.827z"/>
<g>
</g>
<g>
</g>
<g>
</g>
<g>
</g>
<g>
</g>
<g>
</g>
<g>
</g>
<g>
</g>
<g>
</g>
<g>
</g>
<g>
</g>
<g>
</g>
<g>
</g>
<g>
</g>
<g>
</g>
</svg>
