<?xml version="1.0" encoding="iso-8859-1"?>
<!-- Generator: Adobe Illustrator 19.0.0, SVG Export Plug-In . SVG Version: 6.00 Build 0)  -->
<svg version="1.1" id="Layer_1" xmlns="http://www.w3.org/2000/svg" xmlns:xlink="http://www.w3.org/1999/xlink" x="0px" y="0px"
	 viewBox="0 0 504.32 504.32" style="enable-background:new 0 0 504.32 504.32;" xml:space="preserve">
<g transform="translate(21 5)">
	<path style="fill:#ECF4F7;" d="M153.933,460.493V426.36v-34.133v-34.133V323.96v-34.133v-34.133V221.56v-34.133v-34.133h112.64
		c31.573,47.787,58.027,109.227,58.027,179.2c0,93.867-17.067,136.533-17.067,136.533l-8.533,25.6H153.933V460.493z"/>
	<path style="fill:#ECF4F7;" d="M358.733,332.493c0,93.867-17.067,136.533-17.067,136.533l-8.533,25.6H299l8.533-25.6
		c0,0,17.067-42.667,17.067-136.533c0-69.973-26.453-131.413-58.027-179.2h40.96C307.533,153.293,358.733,221.56,358.733,332.493"/>
	<path style="fill:#ECF4F7;" d="M266.573,153.293h-112.64V33.826C153.933,33.826,217.08,78.2,266.573,153.293"/>
</g>
<path style="fill:#51565F;" d="M499.2,503.893H4.267c-2.56,0-4.267-1.707-4.267-4.267s1.707-4.267,4.267-4.267h166.4v-332.8H140.8
	c-2.56,0-4.267-1.707-4.267-4.267c0-2.56,1.707-4.267,4.267-4.267h29.867v-115.2l0,0V4.693c0-2.56,1.707-4.267,4.267-4.267
	c2.56,0,4.267,1.707,4.267,4.267v31.573c10.24,7.68,65.707,50.347,110.08,117.76h38.4l0,0h51.2c2.56,0,4.267,1.707,4.267,4.267
	c0,2.56-1.707,4.267-4.267,4.267h-43.52c12.8,19.627,47.787,82.773,47.787,174.933c0,93.867-17.067,136.533-17.067,138.24
	c-0.853,2.56-3.413,3.413-5.12,2.56c-2.56-0.853-3.413-3.413-2.56-5.12c0,0,17.067-43.52,17.067-134.827
	c0-98.987-41.813-163.84-49.493-174.933h-30.72c30.72,47.787,54.613,107.52,54.613,174.933c0,93.867-17.067,136.533-17.067,138.24
	c-0.853,2.56-3.413,3.413-5.12,2.56c-2.56-0.853-3.413-3.413-2.56-5.12c0,0,17.067-43.52,17.067-134.827
	c0-68.267-25.6-127.147-56.32-174.933H180.053v25.6h93.867c2.56,0,4.267,1.707,4.267,4.267c0,2.56-1.707,4.267-4.267,4.267h-93.867
	V224h110.933c2.56,0,4.267,1.707,4.267,4.267c0,2.56-1.707,4.267-4.267,4.267H180.053v25.6h128c2.56,0,4.267,1.707,4.267,4.267
	c0,2.56-1.707,4.267-4.267,4.267h-128v25.6H312.32c2.56,0,4.267,1.707,4.267,4.267c0,2.56-1.707,4.267-4.267,4.267H180.053v25.6
	h136.533c2.56,0,4.267,1.707,4.267,4.267c0,2.56-1.707,4.267-4.267,4.267H180.053v25.6h136.533c2.56,0,4.267,1.707,4.267,4.267
	s-1.707,4.267-4.267,4.267H180.053v25.6H312.32c2.56,0,4.267,1.707,4.267,4.267s-1.707,4.267-4.267,4.267H180.053v25.6h128
	c2.56,0,4.267,1.707,4.267,4.267s-1.707,4.267-4.267,4.267h-128v25.6h123.733c2.56,0,4.267,1.707,4.267,4.267
	c0,2.56-1.707,4.267-4.267,4.267H180.053v25.6h320c2.56,0,4.267,1.707,4.267,4.267C504.32,503.893,501.76,503.893,499.2,503.893z
	 M179.2,154.027h99.84C240.64,98.56,195.413,60.16,179.2,47.36V154.027z"/>
<g>
</g>
<g>
</g>
<g>
</g>
<g>
</g>
<g>
</g>
<g>
</g>
<g>
</g>
<g>
</g>
<g>
</g>
<g>
</g>
<g>
</g>
<g>
</g>
<g>
</g>
<g>
</g>
<g>
</g>
</svg>
