<?xml version="1.0" encoding="iso-8859-1"?>
<!-- Generator: Adobe Illustrator 19.0.0, SVG Export Plug-In . SVG Version: 6.00 Build 0)  -->
<svg version="1.1" id="Layer_1" xmlns="http://www.w3.org/2000/svg" xmlns:xlink="http://www.w3.org/1999/xlink" x="0px" y="0px"
	 viewBox="0 0 503.467 503.467" style="enable-background:new 0 0 503.467 503.467;" xml:space="preserve">
<g transform="translate(1 3)">
	<path style="fill:#ECF4F7;" d="M344.6,171.933c0,0-11.093,17.067-28.16,17.067h-2.56l-5.12-90.453V96.84L447,104.52
		c0,0,8.533-8.533,25.6-8.533c17.067,0,25.6,8.533,25.6,17.067s-8.533,17.067-25.6,17.067H447c0,0,0,8.533-25.6,25.6
		S344.6,171.933,344.6,171.933z M54.467,103.667l139.093-7.68v0.853l-5.973,91.307h-0.853c0,0-22.187,0-30.72-17.067
		c0,0-51.2,0-76.8-17.067s-25.6-25.6-25.6-25.6h-25.6c-17.067,0-25.6-8.533-25.6-17.067s8.533-17.067,25.6-17.067
		S54.467,103.667,54.467,103.667z"/>
	<path style="fill:#ECF4F7;" d="M282.307,69.533L282.307,69.533c2.56,14.507,2.56,25.6,2.56,25.6l23.893,0.853v1.707l5.12,90.453
		l10.24,179.2h-0.853h0.853l3.413,59.733h-42.667h-34.133H216.6h-42.667l5.973-102.4l71.68,21.333l-71.68-21.333l8.533-136.533
		l5.973-91.307v-0.853l23.04-0.853c0,0,0-11.947,1.707-25.6h0.853c0,0,5.973,25.6,31.573,25.6S282.307,69.533,282.307,69.533
		s-5.973,25.6-31.573,25.6s-31.573-25.6-31.573-25.6h-0.853c3.413-22.187,11.093-51.2,32.427-51.2S279.747,47.347,282.307,69.533
		L282.307,69.533z M361.667,427.933l17.067,51.2h-256l17.067-51.2h34.133H216.6h34.133h34.133h42.667H361.667z"/>
</g>
<path style="fill:#51565F;" d="M379.734,486.4L379.734,486.4h-256l0,0H4.267c-2.56,0-4.267-1.707-4.267-4.267
	s1.707-4.267,4.267-4.267H120.32l16.213-48.64c0.853-1.707,2.56-2.56,4.267-2.56h29.867l4.267-68.267
	c0-2.56,1.707-4.267,4.267-4.267s4.267,2.56,4.267,4.267l-4.267,67.413h34.133V371.2c0-2.56,1.707-4.267,4.267-4.267
	c2.56,0,4.267,1.707,4.267,4.267v55.467h25.6v-46.933c0-2.56,1.707-4.267,4.267-4.267s4.267,1.707,4.267,4.267v46.933h25.6v-38.4
	c0-2.56,1.707-4.267,4.267-4.267s4.267,1.707,4.267,4.267v38.4h34.133L307.2,140.8c0-2.56,1.707-4.267,4.267-4.267
	s4.267,1.707,4.267,4.267L332.8,426.667h29.867c1.707,0,3.413,0.853,4.267,2.56l16.213,48.64H499.2c2.56,0,4.267,1.707,4.267,4.267
	s-1.707,4.267-4.267,4.267H379.734L379.734,486.4z M129.707,477.867H373.76L359.254,435.2h-30.72l0,0h-153.6l0,0h-30.72
	L129.707,477.867z M294.4,366.933h-0.853L180.054,332.8c-1.707-0.853-3.413-2.56-3.413-4.267l7.68-132.267
	c-6.827-0.853-21.333-4.267-29.013-17.067c-11.093,0-52.907-2.56-76.8-17.92c-17.92-11.947-23.893-20.48-26.453-24.747H29.867
	C9.387,136.533,0,125.44,0,115.2s9.387-21.333,29.867-21.333c14.507,0,23.893,5.973,27.307,8.533l156.16-8.533
	c0.853-16.213,5.12-76.8,38.4-76.8s37.547,60.587,38.4,76.8l156.16,8.533c3.413-2.56,12.8-8.533,27.307-8.533
	c20.48,0,29.867,11.093,29.867,21.333s-9.387,21.333-29.867,21.333h-22.187c-2.56,5.12-8.533,12.8-26.453,24.747
	c-26.453,17.92-76.8,17.92-79.36,17.92s-4.267-1.707-4.267-4.267s1.707-4.267,4.267-4.267c0.853,0,50.347,0,74.24-16.213
	c22.187-14.507,23.893-22.187,23.893-22.187c0-2.56,1.707-4.267,4.267-4.267h25.6c13.653,0,21.333-6.827,21.333-12.8
	c0-5.973-7.68-12.8-21.333-12.8c-14.507,0-22.187,6.827-22.187,7.68c-0.853,0.853-1.707,0.853-3.413,0.853L285.867,102.4
	c-2.56,0-4.267-1.707-4.267-4.267c0-3.413,0-6.827,0-11.093c-5.973,7.68-15.36,15.36-29.867,15.36
	c-14.507,0-23.893-7.68-29.867-15.36c0,4.267,0,7.68,0,11.093c0,2.56-1.707,4.267-4.267,4.267l-162.133,8.533
	c-0.853,0-2.56,0-3.413-0.853c0,0-7.68-7.68-22.187-7.68c-13.653,0-21.333,6.827-21.333,12.8c0,5.973,7.68,12.8,21.333,12.8h25.6
	c2.56,0,4.267,1.707,4.267,4.267l0,0c0,0,1.707,7.68,23.893,22.187c23.893,16.213,74.24,16.213,74.24,16.213
	c1.707,0,3.413,0.853,3.413,2.56c5.12,11.093,17.067,13.653,23.04,14.507l2.56-46.933c0-2.56,2.56-4.267,4.267-4.267
	c2.56,0,4.267,2.56,4.267,4.267l-4.267,74.24c0,0,0,0,0,0.853c24.747,57.173,69.12,74.24,69.973,74.24
	c2.56,0.853,3.413,3.413,2.56,5.12c-0.853,2.56-3.413,3.413-5.12,2.56c-1.707-0.853-40.96-15.36-68.267-65.707l-5.12,93.013
	l110.08,33.28c2.56,0.853,3.413,3.413,2.56,5.12C297.814,366.08,296.107,366.933,294.4,366.933z M224.427,70.827
	C224.427,71.68,224.427,71.68,224.427,70.827c0,0.853,5.973,23.04,27.307,23.04c22.187,0,27.307-21.333,27.307-22.187v-0.853
	C275.627,49.493,267.947,25.6,251.734,25.6S226.987,49.493,224.427,70.827z"/>
<g>
</g>
<g>
</g>
<g>
</g>
<g>
</g>
<g>
</g>
<g>
</g>
<g>
</g>
<g>
</g>
<g>
</g>
<g>
</g>
<g>
</g>
<g>
</g>
<g>
</g>
<g>
</g>
<g>
</g>
</svg>
