<?xml version="1.0" encoding="iso-8859-1"?>
<!-- Generator: Adobe Illustrator 19.0.0, SVG Export Plug-In . SVG Version: 6.00 Build 0)  -->
<svg version="1.1" id="Layer_1" xmlns="http://www.w3.org/2000/svg" xmlns:xlink="http://www.w3.org/1999/xlink" x="0px" y="0px"
	 viewBox="0 0 505.173 505.173" style="enable-background:new 0 0 505.173 505.173;" xml:space="preserve">
<g transform="translate(3 9)">
	<g>
		<path style="fill:#F2EDDA;" d="M291.4,491.053h34.133V269.187H291.4V491.053z M95.133,491.053h34.133V269.187H95.133V491.053z
			 M445,491.053h34.133V269.187H445V491.053z M171.933,491.053h34.133V269.187h-34.133V491.053z M368.2,491.053h34.133V269.187
			H368.2V491.053z M18.333,491.053h34.133V269.187H18.333V491.053z"/>
		<polygon style="fill:#F2EDDA;" points="325.533,149.72 325.533,183.853 274.333,183.853 223.133,183.853 171.933,183.853 
			171.933,149.72 171.933,115.587 197.533,115.587 231.667,115.587 265.8,115.587 299.933,115.587 325.533,115.587 		"/>
		<polygon style="fill:#F2EDDA;" points="69.533,183.853 120.733,183.853 171.933,183.853 223.133,183.853 274.333,183.853 
			325.533,183.853 376.733,183.853 427.933,183.853 479.133,183.853 479.133,235.053 18.333,235.053 18.333,183.853 		"/>
		<polygon style="fill:#F2EDDA;" points="479.133,149.72 479.133,183.853 427.933,183.853 376.733,183.853 325.533,183.853 
			325.533,149.72 		"/>
		<polygon style="fill:#F2EDDA;" points="171.933,149.72 171.933,183.853 120.733,183.853 69.533,183.853 18.333,183.853 
			18.333,149.72 		"/>
	</g>
	<path style="fill:#ECF4F7;" d="M265.8,81.453v34.133h-34.133V81.453c0-9.387,7.68-17.067,17.067-17.067
		C258.12,64.387,265.8,72.067,265.8,81.453z M334.067,81.453v34.133h-8.533h-25.6V81.453c0-9.387,7.68-17.067,17.067-17.067
		S334.067,72.067,334.067,81.453z M197.533,81.453v34.133h-25.6H163.4V81.453c0-9.387,7.68-17.067,17.067-17.067
		S197.533,72.067,197.533,81.453z"/>
</g>
<path style="fill:#51565F;" d="M499.2,504.32H4.267c-2.56,0-4.267-1.707-4.267-4.267c0-2.56,1.707-4.267,4.267-4.267h12.8V282.453
	H12.8c-2.56,0-4.267-1.707-4.267-4.267s1.707-4.267,4.267-4.267H64c2.56,0,4.267,1.707,4.267,4.267s-1.707,4.267-4.267,4.267h-4.267
	v213.333h34.133V282.453H89.6c-2.56,0-4.267-1.707-4.267-4.267s1.707-4.267,4.267-4.267h51.2c2.56,0,4.267,1.707,4.267,4.267
	s-1.707,4.267-4.267,4.267h-4.267v213.333h34.133V282.453H166.4c-2.56,0-4.267-1.707-4.267-4.267s1.707-4.267,4.267-4.267h51.2
	c2.56,0,4.267,1.707,4.267,4.267s-1.707,4.267-4.267,4.267h-4.267v213.333h76.8V282.453h-4.267c-2.56,0-4.267-1.707-4.267-4.267
	s1.707-4.267,4.267-4.267h51.2c2.56,0,4.267,1.707,4.267,4.267s-1.707,4.267-4.267,4.267H332.8v213.333h34.133V282.453h-4.267
	c-2.56,0-4.267-1.707-4.267-4.267s1.707-4.267,4.267-4.267h51.2c2.56,0,4.267,1.707,4.267,4.267s-1.707,4.267-4.267,4.267H409.6
	v213.333h34.133V282.453h-4.267c-2.56,0-4.267-1.707-4.267-4.267s1.707-4.267,4.267-4.267h51.2c2.56,0,4.267,1.707,4.267,4.267
	s-1.707,4.267-4.267,4.267H486.4v213.333h12.8c2.56,0,4.267,1.707,4.267,4.267C503.467,502.613,501.76,504.32,499.2,504.32z
	 M452.267,495.787h25.6V282.453h-25.6V495.787z M375.467,495.787h25.6V282.453h-25.6V495.787z M298.667,495.787h25.6V282.453h-25.6
	V495.787z M179.2,495.787h25.6V282.453h-25.6V495.787z M102.4,495.787H128V282.453h-25.6V495.787z M25.6,495.787h25.6V282.453H25.6
	V495.787z M482.133,248.32h-460.8c-2.56,0-4.267-1.707-4.267-4.267V197.12h-12.8c-2.56,0-4.267-1.707-4.267-4.267
	s1.707-4.267,4.267-4.267h166.4v-25.6H25.6v4.267c0,2.56-1.707,4.267-4.267,4.267s-4.267-1.707-4.267-4.267v-4.267h-12.8
	c-2.56,0-4.267-1.707-4.267-4.267s1.707-4.267,4.267-4.267h166.4v-25.6h-21.333c-2.56,0-4.267-1.707-4.267-4.267
	c0-2.56,1.707-4.267,4.267-4.267h12.8V90.453c0-11.947,9.387-21.333,21.333-21.333S204.8,78.507,204.8,90.453v29.867h25.6V90.453
	c0-10.24,7.68-18.773,17.067-20.48v-17.92H243.2c-2.56,0-4.267-1.707-4.267-4.267c0-2.56,1.707-4.267,4.267-4.267h4.267v-8.533
	c-16.213-2.56-24.747-18.773-24.747-18.773c-0.853-1.707,0-4.267,1.707-5.973c1.707-0.853,4.267,0,5.973,1.707
	c0,0,5.973,11.947,17.92,14.507V5.12c0-2.56,1.707-4.267,4.267-4.267s4.267,1.707,4.267,4.267V25.6
	c11.093-2.56,17.067-14.507,17.92-14.507c0.853-1.707,3.413-2.56,5.973-1.707c1.707,0.853,2.56,3.413,1.707,5.973
	c0,0.853-8.533,17.067-24.747,18.773v8.533h4.267c2.56,0,4.267,1.707,4.267,4.267c0,2.56-1.707,4.267-4.267,4.267h-4.267v17.92
	c9.387,1.707,17.067,10.24,17.067,20.48v29.867h25.6V90.453c0-11.947,9.387-21.333,21.333-21.333s21.333,9.387,21.333,21.333v29.867
	h12.8c2.56,0,4.267,1.707,4.267,4.267c0,2.56-1.707,4.267-4.267,4.267h-21.333v25.6h166.4c2.56,0,4.267,1.707,4.267,4.267
	s-1.707,4.267-4.267,4.267h-12.8v4.267c0,2.56-1.707,4.267-4.267,4.267s-4.267-1.707-4.267-4.267v-4.267H334.507v25.6h166.4
	c2.56,0,4.267,1.707,4.267,4.267s-1.707,4.267-4.267,4.267h-12.8v46.933C486.4,246.613,484.693,248.32,482.133,248.32z
	 M25.6,239.787h452.267V197.12H435.2v21.333c0,2.56-1.707,4.267-4.267,4.267s-4.267-1.707-4.267-4.267V197.12H384v21.333
	c0,2.56-1.707,4.267-4.267,4.267c-2.56,0-4.267-1.707-4.267-4.267V197.12H332.8v21.333c0,2.56-1.707,4.267-4.267,4.267
	s-4.267-1.707-4.267-4.267V197.12H281.6v21.333c0,2.56-1.707,4.267-4.267,4.267s-4.267-1.707-4.267-4.267V197.12H230.4v21.333
	c0,2.56-1.707,4.267-4.267,4.267s-4.267-1.707-4.267-4.267V197.12H179.2v21.333c0,2.56-1.707,4.267-4.267,4.267
	c-2.56,0-4.267-1.707-4.267-4.267V197.12H128v21.333c0,2.56-1.707,4.267-4.267,4.267c-2.56,0-4.267-1.707-4.267-4.267V197.12H76.8
	v21.333c0,2.56-1.707,4.267-4.267,4.267c-2.56,0-4.267-1.707-4.267-4.267V197.12H25.6V239.787z M179.2,188.587h145.067v-59.733
	H179.2V188.587z M307.2,120.32h25.6V90.453c0-6.827-5.973-12.8-12.8-12.8c-6.827,0-12.8,5.973-12.8,12.8V120.32z M238.933,120.32
	h25.6V90.453c0-6.827-5.973-12.8-12.8-12.8c-6.827,0-12.8,5.973-12.8,12.8V120.32z M170.667,120.32h25.6V90.453
	c0-6.827-5.973-12.8-12.8-12.8s-12.8,5.973-12.8,12.8V120.32z"/>
<g>
</g>
<g>
</g>
<g>
</g>
<g>
</g>
<g>
</g>
<g>
</g>
<g>
</g>
<g>
</g>
<g>
</g>
<g>
</g>
<g>
</g>
<g>
</g>
<g>
</g>
<g>
</g>
<g>
</g>
</svg>
