<?xml version="1.0" encoding="iso-8859-1"?>
<!-- Generator: Adobe Illustrator 19.0.0, SVG Export Plug-In . SVG Version: 6.00 Build 0)  -->
<svg version="1.1" id="Layer_1" xmlns="http://www.w3.org/2000/svg" xmlns:xlink="http://www.w3.org/1999/xlink" x="0px" y="0px"
	 viewBox="0 0 504.32 504.32" style="enable-background:new 0 0 504.32 504.32;" xml:space="preserve">
<g transform="translate(5 1)">
	<g>
		<polygon style="fill:#F2EDDA;" points="332.067,362.093 357.667,430.36 306.467,430.36 325.24,380.013 		"/>
		<polygon style="fill:#F2EDDA;" points="357.667,310.893 408.867,310.893 408.867,259.693 357.667,259.693 		"/>
		<path style="fill:#F2EDDA;" d="M169.933,327.96c0-15.36-20.48-29.867-36.693-51.2c1.707-2.56,2.56-5.12,2.56-8.533
			c0-5.973-3.413-12.8-8.533-18.773v-6.827h8.533l2.56,0.853c3.413,4.267,8.533,7.68,14.507,7.68h51.2v128h68.267v-68.267h51.2
			v68.267l1.707,0.853l-18.773,50.347h-34.133H152.867v-85.333C162.253,345.027,169.933,337.347,169.933,327.96"/>
	</g>
	<path style="fill:#AE938D;" d="M69.24,345.88c2.56-3.413,5.12-5.973,6.827-9.387c7.68,11.947,17.067,21.333,25.6,30.72v46.08h-51.2
		c-9.387,0-17.067-7.68-17.067-17.067C33.4,381.72,53.027,366.36,69.24,345.88"/>
	<g>
		<polygon style="fill:#F2EDDA;" points="391.8,430.36 357.667,430.36 332.067,362.093 325.24,380.013 323.533,379.16 
			323.533,310.893 357.667,310.893 408.867,310.893 425.933,310.893 425.933,430.36 443,430.36 443,498.627 391.8,498.627 		"/>
		<polygon style="fill:#F2EDDA;" points="306.467,498.627 272.333,498.627 272.333,430.36 306.467,430.36 357.667,430.36 
			391.8,430.36 391.8,498.627 357.667,498.627 		"/>
		<path style="fill:#F2EDDA;" d="M101.667,367.213c-8.533-9.387-17.92-18.773-25.6-30.72c-2.56,3.413-4.267,6.827-6.827,9.387
			l-1.707-0.853v-59.733h46.08C99.107,302.36,84.6,315.16,84.6,327.96c0,9.387,7.68,17.067,17.067,17.067V367.213z"/>
		<polygon style="fill:#F2EDDA;" points="272.333,106.093 280.867,174.36 229.667,174.36 238.2,106.093 		"/>
		<path style="fill:#F2EDDA;" d="M280.867,251.16l2.56,1.707c-13.653,15.36-28.16,28.16-28.16,40.96
			c0,9.387,7.68,17.067,17.067,17.067v68.267h-68.267v-128h25.6v-76.8h51.2V251.16z"/>
		<polygon style="fill:#F2EDDA;" points="101.667,413.293 101.667,367.213 101.667,345.027 152.867,345.027 152.867,430.36 
			272.333,430.36 272.333,498.627 33.4,498.627 33.4,430.36 50.467,430.36 50.467,413.293 		"/>
	</g>
	<path style="fill:#FFE079;" d="M127.267,268.227c-3.413,4.267-6.827,8.533-10.24,12.8c-0.853,1.707-2.56,2.56-3.413,4.267h-46.08
		c-9.387,0-17.067-7.68-17.067-17.067c0-17.067,25.6-34.133,42.667-59.733c8.533,12.8,19.627,23.893,29.013,34.133
		c1.707,2.56,4.267,4.267,5.12,6.827V268.227L127.267,268.227z"/>
	<path style="fill:#80D6FA;" d="M133.24,276.76c16.213,21.333,36.693,35.84,36.693,51.2c0,9.387-7.68,17.067-17.067,17.067h-51.2
		c-9.387,0-17.067-7.68-17.067-17.067c0-12.8,14.507-25.6,29.013-42.667c0.853-0.853,2.56-2.56,3.413-4.267
		c3.413-4.267,6.827-8.533,10.24-12.8C128.973,271.64,131.533,274.2,133.24,276.76"/>
	<path style="fill:#FF7474;" d="M425.933,242.627c0,9.387-7.68,17.067-17.067,17.067h-51.2c-9.387,0-17.067-7.68-17.067-17.067
		c0-17.067,25.6-34.133,42.667-59.733C400.333,208.493,425.933,225.56,425.933,242.627"/>
	<path style="fill:#50DD8E;" d="M221.133,234.093c0,9.387-7.68,17.067-17.067,17.067h-51.2c-5.973,0-11.093-3.413-14.507-7.68
		c-1.707-2.56-2.56-5.973-2.56-9.387c0-17.067,25.6-34.133,42.667-59.733C195.533,199.96,221.133,217.027,221.133,234.093"/>
	<path style="fill:#FFD0A1;" d="M289.4,89.027c0,9.387-7.68,17.067-17.067,17.067H238.2c-9.387,0-17.067-7.68-17.067-17.067
		c0-17.067,25.6-25.6,34.133-85.333C263.8,63.427,289.4,71.96,289.4,89.027"/>
	<path style="fill:#7EE1E6;" d="M340.6,293.827c0,9.387-7.68,17.067-17.067,17.067h-51.2c-9.387,0-17.067-7.68-17.067-17.067
		c0-12.8,13.653-24.747,28.16-40.96c5.12-5.973,10.24-11.947,15.36-18.773C315,259.693,340.6,276.76,340.6,293.827"/>
</g>
<path style="fill:#51565F;" d="M499.2,503.893H4.267c-2.56,0-4.267-1.707-4.267-4.267c0-2.56,1.707-4.267,4.267-4.267h29.867v-64
	c0-2.56,1.707-4.267,4.267-4.267h12.8v-8.533c-9.387-1.707-17.067-10.24-17.067-21.333c0-11.947,10.24-23.04,22.187-35.84
	c2.56-2.56,5.12-5.973,8.533-9.387c1.707-1.707,4.267-1.707,5.973,0c1.707,1.707,1.707,4.267,0,5.973
	c-2.56,3.413-5.973,6.827-8.533,9.387c-10.24,11.947-19.627,21.333-19.627,29.867c0,6.827,5.973,12.8,12.8,12.8
	c2.56,0,4.267,1.707,4.267,4.267v17.067c0,2.56-1.707,4.267-4.267,4.267h-12.8v59.733h230.4v-81.067c0-2.56,1.707-4.267,4.267-4.267
	s4.267,1.707,4.267,4.267v12.8h27.307l24.747-65.707c0.853-3.413,6.827-3.413,7.68,0l24.747,65.707h27.307v-12.8
	c0-2.56,1.707-4.267,4.267-4.267s4.267,1.707,4.267,4.267v81.067h42.667v-59.733h-12.8c-2.56,0-4.267-1.707-4.267-4.267v-115.2
	h-55.467c-2.56,0-4.267-1.707-4.267-4.267s1.707-4.267,4.267-4.267h38.4V264.96H363.52c-11.947,0-21.333-9.387-21.333-21.333
	c0-11.947,10.24-23.04,22.187-35.84c6.827-7.68,14.507-15.36,20.48-24.747v-19.627h-4.267c-2.56,0-4.267-1.707-4.267-4.267
	c0-2.56,1.707-4.267,4.267-4.267h4.267v-5.12c0-2.56,1.707-4.267,4.267-4.267c2.56,0,4.267,1.707,4.267,4.267v4.267h4.267
	c2.56,0,4.267,1.707,4.267,4.267s-1.707,4.267-4.267,4.267h-4.267v19.627c5.973,9.387,13.653,17.92,20.48,24.747
	c11.947,12.8,22.187,23.893,22.187,35.84c0,10.24-7.68,18.773-17.067,21.333v42.667h12.8c2.56,0,4.267,1.707,4.267,4.267v115.2h12.8
	c2.56,0,4.267,1.707,4.267,4.267v64h46.933c2.56,0,4.267,1.707,4.267,4.267C504.32,501.333,501.76,503.893,499.2,503.893z
	 M366.933,495.36h25.6v-59.733H281.6v59.733h25.6v-29.867c0-2.56,1.707-4.267,4.267-4.267s4.267,1.707,4.267,4.267v29.867H358.4
	v-29.867c0-2.56,1.707-4.267,4.267-4.267s4.267,1.707,4.267,4.267V495.36z M317.44,427.093h39.253l-19.627-52.053L317.44,427.093z
	 M388.267,191.573c-5.973,8.533-12.8,15.36-18.773,22.187c-10.24,11.947-19.627,21.333-19.627,30.72c0,6.827,5.973,12.8,12.8,12.8
	h51.2c6.827,0,12.8-5.973,12.8-12.8c0-8.533-9.387-18.773-19.627-30.72C401.067,206.933,394.24,199.253,388.267,191.573z
	 M209.067,435.627h-51.2c-2.56,0-4.267-1.707-4.267-4.267v-81.067h-42.667v81.067c0,2.56-1.707,4.267-4.267,4.267
	s-4.267-1.707-4.267-4.267v-81.067c-9.387-1.707-17.067-10.24-17.067-21.333c0-11.947,10.24-23.04,22.187-35.84
	c6.827-7.68,14.507-15.36,20.48-24.747v-19.627h-4.267c-2.56,0-4.267-1.707-4.267-4.267c0-2.56,1.707-4.267,4.267-4.267H128v-5.12
	c0-2.56,1.707-4.267,4.267-4.267c2.56,0,4.267,1.707,4.267,4.267v4.267h4.267c2.56,0,4.267,1.707,4.267,4.267
	c0,2.56-1.707,4.267-4.267,4.267h-4.267v19.627c5.973,9.387,13.653,17.92,20.48,24.747c11.947,12.8,22.187,23.893,22.187,35.84
	c0,10.24-7.68,18.773-17.067,21.333v76.8h46.933c2.56,0,4.267,1.707,4.267,4.267C213.333,433.067,211.627,435.627,209.067,435.627z
	 M106.667,341.76h51.2c6.827,0,12.8-5.973,12.8-12.8c0-8.533-9.387-18.773-19.627-30.72c-5.973-6.827-12.8-13.653-18.773-22.187
	c-5.973,8.533-12.8,15.36-18.773,22.187c-10.24,11.947-19.627,21.333-19.627,30.72C93.867,335.787,99.84,341.76,106.667,341.76z
	 M277.333,384.427h-68.267c-2.56,0-4.267-1.707-4.267-4.267c0-2.56,1.707-4.267,4.267-4.267h64V316.16
	C263.68,314.453,256,305.92,256,294.827c0-11.947,10.24-23.04,22.187-35.84c6.827-7.68,14.507-15.36,20.48-24.747v-19.627H294.4
	c-2.56,0-4.267-1.707-4.267-4.267s1.707-4.267,4.267-4.267h4.267v-5.12c0-2.56,1.707-4.267,4.267-4.267s4.267,1.707,4.267,4.267
	v4.267h4.267c2.56,0,4.267,1.707,4.267,4.267c0,2.56-1.707,4.267-4.267,4.267H307.2v19.627c5.973,9.387,13.653,17.92,20.48,24.747
	c11.947,12.8,22.187,23.893,22.187,35.84c0,10.24-7.68,18.773-17.067,21.333v12.8c0,2.56-1.707,4.267-4.267,4.267
	s-4.267-1.707-4.267-4.267v-12.8H281.6v64C281.6,382.72,279.893,384.427,277.333,384.427z M302.933,242.773
	c-5.973,8.533-12.8,15.36-18.773,22.187c-10.24,11.947-19.627,21.333-19.627,30.72c0,6.827,5.973,12.8,12.8,12.8h51.2
	c6.827,0,12.8-5.973,12.8-12.8c0-8.533-9.387-18.773-19.627-30.72C315.733,258.133,308.907,250.453,302.933,242.773z
	 M209.067,350.293c-2.56,0-4.267-1.707-4.267-4.267v-89.6h-29.867c-2.56,0-4.267-1.707-4.267-4.267c0-2.56,1.707-4.267,4.267-4.267
	h34.133c6.827,0,12.8-5.973,12.8-12.8c0-8.533-9.387-18.773-19.627-30.72c-5.973-6.827-12.8-13.653-18.773-22.187
	c-5.973,7.68-11.947,14.507-17.067,19.627c-4.267,4.267-8.533,8.533-11.947,13.653c-1.707,1.707-4.267,2.56-5.973,0.853
	c-1.707-1.707-2.56-4.267-0.853-5.973c3.413-5.12,7.68-9.387,11.947-13.653c5.973-6.827,12.8-13.653,18.773-23.04v-19.627h-4.267
	c-2.56,0-4.267-1.707-4.267-4.267c0-2.56,1.707-4.267,4.267-4.267h4.267v-4.266c0-2.56,1.707-4.267,4.267-4.267
	s4.267,1.707,4.267,4.267v4.267h4.267c2.56,0,4.267,1.707,4.267,4.267c0,2.56-1.707,4.267-4.267,4.267h-4.267v19.627
	c5.973,9.387,13.653,17.92,20.48,24.747c11.947,12.8,22.187,23.893,22.187,35.84c0,10.24-7.68,18.773-17.067,20.48v91.307
	C213.333,348.587,211.627,350.293,209.067,350.293z M72.533,316.16c-2.56,0-4.267-1.707-4.267-4.267V290.56
	C58.88,288.853,51.2,280.32,51.2,269.227c0-11.947,10.24-23.04,22.187-35.84c6.827-7.68,14.507-15.36,20.48-24.747v-19.627H89.6
	c-2.56,0-4.267-1.707-4.267-4.267c0-2.56,1.707-4.267,4.267-4.267h4.267v-5.12c0-2.56,1.707-4.267,4.267-4.267
	s4.267,1.707,4.267,4.267v4.267h4.267c2.56,0,4.267,1.707,4.267,4.267c0,2.56-1.707,4.267-4.267,4.267H102.4v19.627
	c1.707,2.56,4.267,5.973,5.973,8.533c1.707,1.707,0.853,4.267-0.853,5.973s-4.267,0.853-5.973-0.853
	c-0.853-1.707-2.56-3.413-4.267-5.12c-5.973,8.533-12.8,15.36-18.773,22.187c-10.24,11.947-19.627,21.333-19.627,30.72
	c0,6.827,5.973,12.8,12.8,12.8h8.533c2.56,0,4.267,1.707,4.267,4.267c0,2.56-1.707,4.267-4.267,4.267h-4.267v21.333
	C76.8,314.453,75.093,316.16,72.533,316.16z M285.867,179.627L285.867,179.627h-51.2l0,0h-8.533c-2.56,0-4.267-1.707-4.267-4.267
	c0-2.56,1.707-4.267,4.267-4.267h5.12l7.68-60.587c-9.387-2.56-16.213-11.093-16.213-20.48c0-7.68,4.267-13.653,9.387-21.333
	c8.533-11.947,19.627-28.16,24.747-64.853c0-1.707,1.707-3.413,4.267-3.413s4.267,1.707,4.267,3.413
	c5.12,36.693,16.213,52.907,24.747,64.853c5.12,7.68,9.387,13.653,9.387,21.333c0,10.24-6.827,18.773-16.213,20.48l7.68,60.587h5.12
	c2.56,0,4.267,1.707,4.267,4.267c0,2.56-1.707,4.267-4.267,4.267H285.867L285.867,179.627z M239.787,171.093H281.6l-7.68-59.733
	h-26.453L239.787,171.093z M243.2,102.827h34.133l0,0c6.827,0,12.8-5.973,12.8-12.8c0-5.12-3.413-9.387-7.68-16.213
	c-6.827-9.387-16.213-23.04-22.187-46.933c-5.973,23.893-15.36,37.547-22.187,46.933c-4.267,6.827-7.68,11.093-7.68,16.213
	C230.4,96.853,236.373,102.827,243.2,102.827L243.2,102.827z"/>
<g>
</g>
<g>
</g>
<g>
</g>
<g>
</g>
<g>
</g>
<g>
</g>
<g>
</g>
<g>
</g>
<g>
</g>
<g>
</g>
<g>
</g>
<g>
</g>
<g>
</g>
<g>
</g>
<g>
</g>
</svg>
