<?xml version="1.0" encoding="iso-8859-1"?>
<!-- Generator: Adobe Illustrator 19.0.0, SVG Export Plug-In . SVG Version: 6.00 Build 0)  -->
<svg version="1.1" id="Layer_1" xmlns="http://www.w3.org/2000/svg" xmlns:xlink="http://www.w3.org/1999/xlink" x="0px" y="0px"
	 viewBox="0 0 503.467 503.467" style="enable-background:new 0 0 503.467 503.467;" xml:space="preserve">
<g transform="translate(21 9)">
	<path style="fill:#FFD0A1;" d="M307.533,97.667v153.6h-17.067H171h-17.067v-153.6h34.133H273.4H307.533z M213.667,490.2H171
		V370.733h42.667H247.8h42.667V490.2H247.8H213.667z M247.8,370.733h-34.133H171V251.267h119.467v119.467H247.8z M256.333,63.533
		L273.4,97.667h-85.333l17.067-34.133h25.6H256.333z"/>
	<path style="fill:#ECF4F7;" d="M230.733,131.8c23.893,0,42.667,18.773,42.667,42.667s-18.773,42.667-42.667,42.667
		s-42.667-18.773-42.667-42.667S206.84,131.8,230.733,131.8"/>
</g>
<path style="fill:#51565F;" d="M499.2,503.467H4.267C1.707,503.467,0,501.76,0,499.2c0-2.56,1.707-4.267,4.267-4.267h183.467v-230.4
	h-12.8c-2.56,0-4.267-1.707-4.267-4.267V89.6c0-2.56,1.707-4.267,4.267-4.267S179.2,87.04,179.2,89.6v12.8h27.307l16.213-31.573
	c0.853-1.707,2.56-2.56,3.413-2.56h21.333v-64c0-2.56,1.707-4.267,4.267-4.267C254.293,0,256,1.707,256,4.267v64h21.333
	c1.707,0,3.413,0.853,3.413,2.56L296.96,102.4h5.973c2.56,0,4.267,1.707,4.267,4.267s-1.707,4.267-4.267,4.267H294.4l0,0h-85.333
	l0,0H179.2V256h145.067V89.6c0-2.56,1.707-4.267,4.267-4.267c2.56,0,4.267,1.707,4.267,4.267v170.667
	c0,2.56-1.707,4.267-4.267,4.267H196.267v110.933H230.4V294.4c0-2.56,1.707-4.267,4.267-4.267s4.267,1.707,4.267,4.267v81.067h25.6
	V294.4c0-2.56,1.707-4.267,4.267-4.267s4.267,1.707,4.267,4.267v81.067h12.8c2.56,0,4.267,1.707,4.267,4.267
	c0,2.56-1.707,4.267-4.267,4.267h-89.6v110.933H230.4v-81.067c0-2.56,1.707-4.267,4.267-4.267s4.267,1.707,4.267,4.267v81.067h25.6
	v-81.067c0-2.56,1.707-4.267,4.267-4.267s4.267,1.707,4.267,4.267v81.067H307.2V285.867c0-2.56,1.707-4.267,4.267-4.267
	s4.267,1.707,4.267,4.267v209.067H499.2c2.56,0,4.267,1.707,4.267,4.267C503.467,501.76,501.76,503.467,499.2,503.467z
	 M215.893,102.4h71.68l-12.8-25.6h-46.08L215.893,102.4z M251.733,230.4c-25.6,0-46.933-21.333-46.933-46.933
	s21.333-46.933,46.933-46.933s46.933,21.333,46.933,46.933S277.333,230.4,251.733,230.4z M251.733,145.067
	c-21.333,0-38.4,17.067-38.4,38.4s17.067,38.4,38.4,38.4s38.4-17.067,38.4-38.4S273.067,145.067,251.733,145.067z M260.267,196.267
	c-0.853,0-2.56,0-3.413-0.853l-8.533-8.533c-0.853-0.853-0.853-1.707-0.853-3.413V166.4c0-2.56,1.707-4.267,4.267-4.267
	S256,163.84,256,166.4v15.36l7.68,7.68c1.707,1.707,1.707,4.267,0,5.973C262.827,196.267,261.12,196.267,260.267,196.267z"/>
<g>
</g>
<g>
</g>
<g>
</g>
<g>
</g>
<g>
</g>
<g>
</g>
<g>
</g>
<g>
</g>
<g>
</g>
<g>
</g>
<g>
</g>
<g>
</g>
<g>
</g>
<g>
</g>
<g>
</g>
</svg>
