<?xml version="1.0" encoding="iso-8859-1"?>
<!-- Generator: Adobe Illustrator 19.0.0, SVG Export Plug-In . SVG Version: 6.00 Build 0)  -->
<svg version="1.1" id="Layer_1" xmlns="http://www.w3.org/2000/svg" xmlns:xlink="http://www.w3.org/1999/xlink" x="0px" y="0px"
	 viewBox="0 0 503.467 503.467" style="enable-background:new 0 0 503.467 503.467;" xml:space="preserve">
<g transform="translate(13 6)">
	<path style="fill:#FFD0A1;" d="M282.253,245.733l8.533,25.6h-34.133h-17.067V100.667h-25.6c0,0-8.533-17.067-8.533-34.133
		l34.133-25.6l34.133,25.6c0,17.067-8.533,34.133-8.533,34.133C265.187,168.933,282.253,245.733,282.253,245.733"/>
	<path style="fill:#FFD0A1;" d="M384.653,493.2h-68.267v-8.533c0-42.667-34.133-76.8-76.8-76.8s-76.8,34.133-76.8,76.8v8.533H94.52
		c0,0,34.133-51.2,59.733-119.467h45.227h80.213h45.227C350.52,442,384.653,493.2,384.653,493.2"/>
	<path style="fill:#FFD0A1;" d="M316.387,348.133l8.533,25.6h-45.227l0,0l-23.04-102.4h34.133
		C299.32,314,316.387,348.133,316.387,348.133"/>
	<path style="fill:#FFD0A1;" d="M239.587,100.667v170.667H222.52h-34.133l8.533-25.6c0,0,17.067-76.8,17.067-145.067H239.587z"/>
	<path style="fill:#FFD0A1;" d="M222.52,271.333l-23.04,102.4l0,0h-45.227l8.533-25.6c0,0,17.067-34.133,25.6-76.8H222.52z"/>
</g>
<path style="fill:#51565F;" d="M397.653,503.467L397.653,503.467H107.52l0,0H5.12c-2.56,0-4.267-1.707-4.267-4.267
	c0-2.56,1.707-4.267,4.267-4.267h99.84c5.973-9.387,34.133-53.76,55.467-110.933H140.8c-2.56,0-4.267-1.707-4.267-4.267
	c0-2.56,1.707-4.267,4.267-4.267h25.6l0,0h170.667l0,0h25.6c2.56,0,4.267,1.707,4.267,4.267c0,2.56-1.707,4.267-4.267,4.267H343.04
	c22.187,57.173,49.493,101.547,55.467,110.933h99.84c2.56,0,4.267,1.707,4.267,4.267c0,2.56-1.707,4.267-4.267,4.267H397.653
	L397.653,503.467z M333.653,494.933h56.32C379.733,478.72,354.987,436.907,335.36,384H170.667
	c-19.627,52.907-45.227,94.72-54.613,110.933h56.32v-4.267c0-44.373,36.693-81.067,81.067-81.067s81.067,36.693,81.067,81.067v4.267
	H333.653z M180.053,494.933H325.12v-4.267c0-40.107-32.427-72.533-72.533-72.533s-72.533,32.427-72.533,72.533V494.933z
	 M286.72,358.4c-1.707,0-3.413-1.707-4.267-3.413L266.24,281.6h-27.307l-16.213,73.387c-0.853,2.56-2.56,3.413-5.12,3.413
	c-2.56-0.853-3.413-2.56-3.413-5.12L230.4,281.6h-25.6c-8.533,40.96-24.747,73.387-25.6,74.24c-0.853,1.707-3.413,2.56-5.973,1.707
	c-1.707-0.853-2.56-3.413-1.707-5.973c0,0,15.36-31.573,23.893-70.827h-20.48c-2.56,0-4.267-1.707-4.267-4.267
	s1.707-4.267,4.267-4.267h25.6l0,0h34.133l0,0H268.8l0,0h34.133l0,0h25.6c2.56,0,4.267,1.707,4.267,4.267s-1.707,4.267-4.267,4.267
	h-20.48c8.533,39.253,23.893,69.973,23.893,70.827c0.853,1.707,0,4.267-1.707,5.973c-1.707,0.853-4.267,0-5.973-1.707
	c-0.853-1.707-16.213-33.28-25.6-74.24h-25.6l16.213,71.68c0.853,2.56-0.853,4.267-3.413,5.12
	C287.573,358.4,286.72,358.4,286.72,358.4z M295.253,256c-1.707,0-3.413-1.707-4.267-3.413c0-0.853-17.067-77.653-17.067-145.92
	c0-0.853,0-1.707,0.853-1.707c0,0,7.68-15.36,7.68-29.867l-29.867-22.187L222.72,75.093c0.853,11.947,5.12,23.04,6.827,28.16h23.04
	c2.56,0,4.267,1.707,4.267,4.267v145.067c0,2.56-1.707,4.267-4.267,4.267c-2.56,0-4.267-1.707-4.267-4.267v-140.8h-17.067
	c-0.853,66.56-17.067,140.8-17.067,141.653c-0.853,2.56-2.56,3.413-5.12,3.413c-2.56-0.853-3.413-2.56-3.413-5.12
	c0-0.853,17.067-76.8,17.067-143.36c-1.707-4.267-8.533-19.627-8.533-34.987c0-1.707,0.853-2.56,1.707-3.413l32.427-24.747V4.267
	c0-2.56,1.707-4.267,4.267-4.267c2.56,0,4.267,1.707,4.267,4.267v40.96l32.427,24.747c0.853,0.853,1.707,1.707,1.707,3.413
	c0,15.36-6.827,31.573-8.533,34.987c0,66.56,17.067,142.507,17.067,143.36c0.853,2.56-0.853,4.267-3.413,5.12
	C296.107,256,295.253,256,295.253,256z"/>
<g>
</g>
<g>
</g>
<g>
</g>
<g>
</g>
<g>
</g>
<g>
</g>
<g>
</g>
<g>
</g>
<g>
</g>
<g>
</g>
<g>
</g>
<g>
</g>
<g>
</g>
<g>
</g>
<g>
</g>
</svg>
