<?xml version="1.0" encoding="iso-8859-1"?>
<!-- Generator: Adobe Illustrator 19.0.0, SVG Export Plug-In . SVG Version: 6.00 Build 0)  -->
<svg version="1.1" id="Layer_1" xmlns="http://www.w3.org/2000/svg" xmlns:xlink="http://www.w3.org/1999/xlink" x="0px" y="0px"
	 viewBox="0 0 506.026 506.026" style="enable-background:new 0 0 506.026 506.026;" xml:space="preserve">
<g transform="translate(3 19)">
	<path style="fill:#F2EDDA;" d="M248.733,165.747h25.6l8.533,17.067l17.067,8.533L291.4,225.48v42.667l25.6,25.6l17.067-8.533
		l34.133,8.533V251.08l8.533-17.067l17.067-17.067V199.88l8.533-17.067h59.733c10.24,0,17.067,6.827,17.067,17.067v136.533
		c-9.387,0-17.067,7.68-17.067,17.067v51.2h-34.133v-51.2c0-9.387-7.68-17.067-17.067-17.067s-17.067,7.68-17.067,17.067v51.2
		h-34.133v-59.733c0-9.387-7.68-17.067-17.067-17.067s-17.067,7.68-17.067,17.067v59.733H291.4v-68.267
		c0-9.387-7.68-17.067-17.067-17.067s-17.067,7.68-17.067,17.067v68.267h-34.133v-68.267c0-9.387-7.68-17.067-17.067-17.067
		S189,327.027,189,336.413v68.267h-34.133v-59.733c0-9.387-7.68-17.067-17.067-17.067s-17.067,7.68-17.067,17.067v59.733H86.6v-51.2
		c0-9.387-7.68-17.067-17.067-17.067s-17.067,7.68-17.067,17.067v51.2H18.333v-8.533V97.48c0,0,76.8-34.133,179.2-34.133
		c25.6,17.067,42.667,76.8,42.667,76.8L248.733,165.747z"/>
	<path style="fill:#FFD0A1;" d="M427.933,353.48v51.2H393.8v-51.2c0-9.387,7.68-17.067,17.067-17.067
		S427.933,344.093,427.933,353.48z M359.667,344.947v59.733h-34.133v-59.733c0-9.387,7.68-17.067,17.067-17.067
		S359.667,335.56,359.667,344.947z M291.4,336.413v68.267h-34.133v-68.267c0-9.387,7.68-17.067,17.067-17.067
		S291.4,327.027,291.4,336.413z M154.867,344.947v59.733h-34.133v-59.733c0-9.387,7.68-17.067,17.067-17.067
		S154.867,335.56,154.867,344.947z M154.867,234.013v59.733h-34.133v-59.733c0-9.387,7.68-17.067,17.067-17.067
		S154.867,224.627,154.867,234.013z M86.6,242.547v59.733H52.467v-59.733c0-9.387,7.68-17.067,17.067-17.067
		S86.6,233.16,86.6,242.547z M223.133,225.48v59.733H189V225.48c0-9.387,7.68-17.067,17.067-17.067S223.133,216.093,223.133,225.48z
		 M291.4,225.48v59.733h-34.133V225.48c0-9.387,7.68-17.067,17.067-17.067S291.4,216.093,291.4,225.48z M427.933,302.28H393.8v-51.2
		c0-9.387,7.68-17.067,17.067-17.067s17.067,7.68,17.067,17.067V302.28z M86.6,353.48v51.2H52.467v-51.2
		c0-9.387,7.68-17.067,17.067-17.067S86.6,344.093,86.6,353.48z M223.133,336.413v68.267H189v-68.267
		c0-9.387,7.68-17.067,17.067-17.067S223.133,327.027,223.133,336.413z"/>
</g>
<path style="fill:#51565F;" d="M499.2,427.947H4.267c-2.56,0-4.267-1.707-4.267-4.267s1.707-4.267,4.267-4.267h17.067
	c-2.56,0-4.267-1.707-4.267-4.267V116.48c0-1.707,0.853-3.413,2.56-4.267c0.853,0,78.507-34.133,180.907-34.133
	c0.853,0,1.707,0,2.56,0.853c26.453,17.92,43.52,76.8,44.373,79.36c0.853,2.56-0.853,4.267-2.56,5.12
	c-2.56,0.853-4.267-0.853-5.12-2.56c0-0.853-16.213-57.173-40.107-73.387c-89.6,0-159.573,27.307-173.227,32.427v295.253
	c0,2.56-1.707,4.267-4.267,4.267h29.867V372.48c0-11.947,9.387-21.333,21.333-21.333s21.333,9.387,21.333,21.333v46.933h25.6
	v-55.467c0-11.947,9.387-21.333,21.333-21.333c11.947,0,21.333,9.387,21.333,21.333v55.467h25.6v-64
	c0-11.947,9.387-21.333,21.333-21.333c11.947,0,21.333,9.387,21.333,21.333v64h25.6v-64c0-11.947,9.387-21.333,21.333-21.333
	c11.947,0,21.333,9.387,21.333,21.333v64h25.6v-55.467c0-11.947,9.387-21.333,21.333-21.333c11.947,0,21.333,9.387,21.333,21.333
	v55.467h25.6V372.48c0-11.947,9.387-21.333,21.333-21.333s21.333,9.387,21.333,21.333v46.933h25.6V372.48
	c0-10.24,7.68-18.773,17.067-21.333V218.88c0-8.533-4.267-12.8-12.8-12.8h-57.173l-6.827,13.653v16.213
	c0,0.853-0.853,2.56-0.853,3.413l-16.213,16.213l-7.68,15.36v41.813c0,1.707-0.853,2.56-1.707,3.413
	c-0.853,0.853-2.56,0.853-3.413,0.853l-32.427-8.533l-15.36,7.68c-1.707,0.853-3.413,0.853-5.12-0.853l-25.6-25.6
	c-1.707-1.707-1.707-4.267,0-5.973c1.707-1.707,4.267-1.707,5.973,0l23.04,23.04l14.507-6.827c0.853-0.853,1.707-0.853,2.56,0
	l29.013,6.827V270.08c0-0.853,0-1.707,0.853-1.707l8.533-17.067l0.853-0.853l16.213-16.213v-15.36c0-0.853,0-1.707,0.853-1.707
	l8.533-17.067c0.853-1.707,2.56-2.56,3.413-2.56h59.733c12.8,0,21.333,8.533,21.333,21.333v136.533c0,2.56-1.707,4.267-4.267,4.267
	c-6.827,0-12.8,5.973-12.8,12.8v46.933h29.867c2.56,0,4.267,1.707,4.267,4.267S501.76,427.947,499.2,427.947z M401.067,419.413h25.6
	V372.48c0-6.827-5.973-12.8-12.8-12.8s-12.8,5.973-12.8,12.8V419.413z M332.8,419.413h25.6v-55.467c0-6.827-5.973-12.8-12.8-12.8
	s-12.8,5.973-12.8,12.8V419.413z M264.533,419.413h25.6v-64c0-6.827-5.973-12.8-12.8-12.8s-12.8,5.973-12.8,12.8V419.413z
	 M196.267,419.413h25.6v-64c0-6.827-5.973-12.8-12.8-12.8s-12.8,5.973-12.8,12.8V419.413z M128,419.413h25.6v-55.467
	c0-6.827-5.973-12.8-12.8-12.8c-6.827,0-12.8,5.973-12.8,12.8V419.413z M59.733,419.413h25.6V372.48c0-6.827-5.973-12.8-12.8-12.8
	c-6.827,0-12.8,5.973-12.8,12.8V419.413z M430.933,325.547c-2.56,0-4.267-1.707-4.267-4.267v-51.2c0-6.827-5.973-12.8-12.8-12.8
	c-2.56,0-4.267-1.707-4.267-4.267s1.707-4.267,4.267-4.267c11.947,0,21.333,9.387,21.333,21.333v51.2
	C435.2,323.84,433.493,325.547,430.933,325.547z M396.8,325.547c-2.56,0-4.267-1.707-4.267-4.267v-34.133
	c0-2.56,1.707-4.267,4.267-4.267s4.267,1.707,4.267,4.267v34.133C401.067,323.84,399.36,325.547,396.8,325.547z M89.6,325.547
	c-2.56,0-4.267-1.707-4.267-4.267v-59.733c0-6.827-5.973-12.8-12.8-12.8c-6.827,0-12.8,5.973-12.8,12.8v59.733
	c0,2.56-1.707,4.267-4.267,4.267c-2.56,0-4.267-1.707-4.267-4.267v-59.733c0-11.947,9.387-21.333,21.333-21.333
	s21.333,9.387,21.333,21.333v59.733C93.867,323.84,92.16,325.547,89.6,325.547z M157.867,317.013c-2.56,0-4.267-1.707-4.267-4.267
	v-59.733c0-6.827-5.973-12.8-12.8-12.8c-6.827,0-12.8,5.973-12.8,12.8v59.733c0,2.56-1.707,4.267-4.267,4.267
	c-2.56,0-4.267-1.707-4.267-4.267v-59.733c0-11.947,9.387-21.333,21.333-21.333c11.947,0,21.333,9.387,21.333,21.333v59.733
	C162.133,315.306,160.427,317.013,157.867,317.013z M260.267,308.48c-2.56,0-4.267-1.707-4.267-4.267V244.48
	c0-11.947,9.387-21.333,21.333-21.333c6.827,0,11.947,2.56,16.213,7.68l4.267-17.92l-13.653-6.827c-0.853,0-1.707-0.853-1.707-1.707
	l-7.68-14.507H243.2c-100.693,0-186.027,17.067-186.88,17.067c-2.56,0.853-4.267-0.853-5.12-3.413
	c-0.853-2.56,0.853-4.267,3.413-5.12c0.853,0,87.04-17.067,188.587-17.067h34.133c1.707,0,3.413,0.853,3.413,2.56l7.68,16.213
	l16.213,7.68c1.707,0.853,2.56,2.56,2.56,5.12l-8.533,34.133c-0.853,1.707-2.56,3.413-4.267,3.413c-2.56,0-3.413-1.707-3.413-4.267
	c0-6.827-5.973-12.8-12.8-12.8s-12.8,5.973-12.8,12.8v59.733C264.533,306.773,262.827,308.48,260.267,308.48z M226.133,308.48
	c-2.56,0-4.267-1.707-4.267-4.267V244.48c0-6.827-5.973-12.8-12.8-12.8s-12.8,5.973-12.8,12.8v59.733
	c0,2.56-1.707,4.267-4.267,4.267s-4.267-1.707-4.267-4.267V244.48c0-11.947,9.387-21.333,21.333-21.333
	c11.947,0,21.333,9.387,21.333,21.333v59.733C230.4,306.773,228.693,308.48,226.133,308.48z M55.467,171.947
	c-2.56,0-4.267-1.707-4.267-4.267v-25.6c0-2.56,1.707-4.267,4.267-4.267c2.56,0,4.267,1.707,4.267,4.267v25.6
	C59.733,170.24,58.027,171.947,55.467,171.947z M89.6,163.413c-2.56,0-4.267-1.707-4.267-4.267v-25.6
	c0-2.56,1.707-4.267,4.267-4.267c2.56,0,4.267,1.707,4.267,4.267v25.6C93.867,161.706,92.16,163.413,89.6,163.413z M123.733,159.147
	c-2.56,0-4.267-1.707-4.267-4.267v-25.6c0-2.56,1.707-4.267,4.267-4.267c2.56,0,4.267,1.707,4.267,4.267v25.6
	C128,157.44,126.293,159.147,123.733,159.147z M192,154.88c-2.56,0-4.267-1.707-4.267-4.267v-25.6c0-2.56,1.707-4.267,4.267-4.267
	s4.267,1.707,4.267,4.267v25.6C196.267,153.173,194.56,154.88,192,154.88z M157.867,154.88c-2.56,0-4.267-1.707-4.267-4.267v-25.6
	c0-2.56,1.707-4.267,4.267-4.267c2.56,0,4.267,1.707,4.267,4.267v25.6C162.133,153.173,160.427,154.88,157.867,154.88z"/>
<g>
</g>
<g>
</g>
<g>
</g>
<g>
</g>
<g>
</g>
<g>
</g>
<g>
</g>
<g>
</g>
<g>
</g>
<g>
</g>
<g>
</g>
<g>
</g>
<g>
</g>
<g>
</g>
<g>
</g>
</svg>
